<svg width="578" height="578" viewBox="0 0 578 578" fill="none" xmlns="http://www.w3.org/2000/svg">
<mask id="mask0_61_39" style="mask-type:luminance" maskUnits="userSpaceOnUse" x="9" y="9" width="560" height="560">
<path d="M289 569C443.64 569 569 443.64 569 289C569 134.36 443.64 9 289 9C134.36 9 9 134.36 9 289C9 443.64 134.36 569 289 569Z" fill="white"/>
</mask>
<g mask="url(#mask0_61_39)">
<path d="M569 9H9V569H569V9Z" fill="#5A9040"/>
<path d="M61 9H9V569H61V9Z" fill="#4A7C35"/>
<path d="M106 9H76V569H106V9Z" fill="#6AAB50"/>
<path d="M176 9H121V569H176V9Z" fill="#4D8238"/>
<path d="M219 9H191V569H219V9Z" fill="#70B855"/>
<path d="M294 9H234V569H294V9Z" fill="#528A3C"/>
<path d="M341 9H309V569H341V9Z" fill="#68A84E"/>
<path d="M406 9H356V569H406V9Z" fill="#477838"/>
<path d="M449 9H421V569H449V9Z" fill="#72BC58"/>
<path d="M522 9H464V569H522V9Z" fill="#4F8A3A"/>
<path d="M569 9H537V569H569V9Z" fill="#66A54C"/>
<path d="M569 9H9V569H569V9Z" fill="black" fill-opacity="0.08"/>
</g>
<path d="M289 569C443.64 569 569 443.64 569 289C569 134.36 443.64 9 289 9C134.36 9 9 134.36 9 289C9 443.64 134.36 569 289 569Z" stroke="#2D5220" stroke-width="18"/>
<path d="M289 297C293.418 297 297 293.418 297 289C297 284.582 293.418 281 289 281C284.582 281 281 284.582 281 289C281 293.418 284.582 297 289 297Z" fill="#F0F8E8"/>
<path d="M289 289V89" stroke="#F0F8E8" stroke-width="16" stroke-linecap="round"/>
<path d="M289 289L429 339" stroke="#C8E8A0" stroke-width="11" stroke-linecap="round"/>
<path d="M289 301C295.627 301 301 295.627 301 289C301 282.373 295.627 277 289 277C282.373 277 277 282.373 277 289C277 295.627 282.373 301 289 301Z" fill="#F0F8E8"/>
<path opacity="0.6" d="M289 95C292.314 95 295 92.3137 295 89C295 85.6863 292.314 83 289 83C285.686 83 283 85.6863 283 89C283 92.3137 285.686 95 289 95Z" fill="#F0F8E8"/>
<path opacity="0.6" d="M289 495C292.314 495 295 492.314 295 489C295 485.686 292.314 483 289 483C285.686 483 283 485.686 283 489C283 492.314 285.686 495 289 495Z" fill="#F0F8E8"/>
<path opacity="0.6" d="M89 295C92.3137 295 95 292.314 95 289C95 285.686 92.3137 283 89 283C85.6863 283 83 285.686 83 289C83 292.314 85.6863 295 89 295Z" fill="#F0F8E8"/>
<path opacity="0.6" d="M489 295C492.314 295 495 292.314 495 289C495 285.686 492.314 283 489 283C485.686 283 483 285.686 483 289C483 292.314 485.686 295 489 295Z" fill="#F0F8E8"/>
</svg>
